STARTFONT 2.1
FONT HAN-GB2312
SIZE 14 72 72
FONTBOUNDINGBOX 9 14 0 0
STARTPROPERTIES 1
BITCOUNT 8
ENDPROPERTIES
CHARS 10
STARTCHAR  00E0
ENCODING  224
SWIDTH  1000 0
DWIDTH  9 0
BBX  8 12 0 0
BITMAP
0000000000000000
0010E0A060200000
0030FFFFFFFF4000
0000206060604040
0020C0FFFFE0FFFF
10E0FFFFFFFFFFFF
80FFE04040E0FFFF
E0FF20000040FFFF
E0FF10000030FFFF
A0FF800000A0FFFF
20F0FFE0E0FFFFFF
0020C0F0FFFFFFFF
ENDCHAR
STARTCHAR  00E1
ENCODING  225
SWIDTH  1000 0
DWIDTH  9 0
BBX  8 12 0 0
BITMAP
0000000000000000
00002060A0E01000
0030FFFFFFFF4000
0010606060304040
0020C0FFFFE0FFFF
10E0FFFFFFFFFFFF
80FFE04040E0FFFF
E0FF20000040FFFF
E0FF10000030FFFF
A0FF800000A0FFFF
20F0FFE0E0FFFFFF
0020C0F0FFFFFFFF
ENDCHAR
STARTCHAR  00E8
ENCODING  232
SWIDTH  1000 0
DWIDTH  8 0
BBX  9 12 0 0
BITMAP
000010000000000000
0020FFE0A040100000
0040F0FFFFFF200000
000030808060000000
0080FFFFFFFF800000
40FFF0A0A0F0FF6000
A0FF302060E0FFE000
E0FFE0FFFFFFC08000
C0FFF0A06040A06000
40FFF08080F0FFC000
0080FFFFFFFFE02000
00003080A060100000
ENDCHAR
STARTCHAR  00E9
ENCODING  233
SWIDTH  1000 0
DWIDTH  8 0
BBX  9 12 0 0
BITMAP
000000000010000000
001060A0E0F0000000
0040FFFFFFE0200000
000060808020000000
0080FFFFFFFF800000
40FFF0A0A0F0FF6000
A0FF302060E0FFE000
E0FFE0FFFFFFC08000
C0FFF0A06040A06000
40FFF08080F0FFC000
0080FFFFFFFFE02000
00003080A060100000
ENDCHAR
STARTCHAR  00F2
ENCODING  242
SWIDTH  1000 0
DWIDTH  8 0
BBX  8 11 0 0
BITMAP
0000806010000000
0020FFFFFFE04000
001080A0A0C02000
001080E0E0801000
10E0FFFFFFFFE020
80FFE06040C0FFA0
C0FF30000010F0F0
E0FF10000000E0F0
A0FFA0000080FFC0
20F0FFF0F0FFF030
0020A0F0F0C03000
ENDCHAR
STARTCHAR  00F3
ENCODING  243
SWIDTH  1000 0
DWIDTH  8 0
BBX  8 11 0 0
BITMAP
0000001040800000
0030E0FFFFFF4000
0010C0A0A0802000
001080E0E0801000
10E0FFFFFFFFE020
80FFE06040C0FFA0
C0FF30000010F0F0
E0FF10000000E0F0
A0FFA0000080FFC0
20F0FFF0F0FFF030
0020A0F0F0C03000
ENDCHAR
STARTCHAR  00F9
ENCODING  249
SWIDTH  1000 0
DWIDTH  9 0
BBX  9 11 -1 0
BITMAP
000000300000000000
000040FFF0A0600000
000060E0FFFFF00000
308080000000408030
60FFFF000000A0FF60
60FFFF000000A0FF60
60FFFF000000A0FF60
60FFFF100000C0FF60
20FFFFA04080FFFF60
00A0FFFFFFFFFFFF60
000080E0FFC0E0FF60
ENDCHAR
STARTCHAR  00FA
ENCODING  250
SWIDTH  1000 0
DWIDTH  9 0
BBX  9 11 -1 0
BITMAP
000000000010300000
00003080C0FFF00000
000060FFFFFFE01000
308080000000408030
60FFFF000000A0FF80
60FFFF000000A0FF80
60FFFF000000A0FF80
60FFFF100000A0FF80
20FFFFA04080FFFF80
00A0FFFFFFFFFFFF80
000080E0FFE0C0FF80
ENDCHAR
STARTCHAR  00FC
ENCODING  252
SWIDTH  1000 0
DWIDTH  9 0
BBX  8 11 -1 0
BITMAP
0000200000101000
00A0F00000F0F010
0080E00000E0E000
1030300000103020
80FFFF000060FFC0
80FFFF000060FFC0
80FFFF000060FFC0
60FFFF000060FFC0
40FFFF6040E0FFC0
00C0FFFFFFFFFFC0
0010A0F0F0C0FFC0
ENDCHAR
STARTCHAR  02C7
ENCODING  711
SWIDTH  1000 0
DWIDTH  12 0
BBX  0 0 0 0
BITMAP
ENDCHAR
ENDFONT
