STARTFONT 2.1
FONT HAN-GB2312
SIZE 10 72 72
FONTBOUNDINGBOX 6 10 0 0
STARTPROPERTIES 1
BITCOUNT 8
ENDPROPERTIES
CHARS 10
STARTCHAR  00E0
ENCODING  224
SWIDTH  1000 0
DWIDTH  6 0
BBX  6 9 0 -1
BITMAP
008060300000
00C0F0FF8000
0040A080A0C0
60FFFFFFFFFF
E0800030F0FF
FF300000C0FF
C0C04080FFFF
20E0FFFFFFFF
000020202030
ENDCHAR
STARTCHAR  00E1
ENCODING  225
SWIDTH  1000 0
DWIDTH  6 0
BBX  6 9 0 -1
BITMAP
001040804000
00F0FFF08000
0040A080A0C0
60FFFFFFFFFF
E0800030F0FF
FF300000C0FF
C0C04080FFFF
20E0FFFFFFFF
000020202030
ENDCHAR
STARTCHAR  00E8
ENCODING  232
SWIDTH  1000 0
DWIDTH  6 0
BBX  7 9 0 -1
BITMAP
0080C080300000
0060C0C0600000
0080E0F0800000
80F08080FFA000
E0C080E0FFE000
E0FFE080804000
60FF80A0FFC000
0060E0E0801000
00000000000000
ENDCHAR
STARTCHAR  00E9
ENCODING  233
SWIDTH  1000 0
DWIDTH  6 0
BBX  7 9 0 -1
BITMAP
003080C0600000
0080C0C0600000
0080E0F0800000
80F08080FFA000
E0C080E0FFE000
E0FFE080804000
60FF80A0FFC000
0060E0E0801000
00000000000000
ENDCHAR
STARTCHAR  00F2
ENCODING  242
SWIDTH  1000 0
DWIDTH  6 0
BBX  6 9 0 -1
BITMAP
003010000000
00F0FFE0A000
0030A0A06000
20E0FFFFE020
C0C04040C0C0
FF30000030FF
E0A01010A0C0
20E0FFFFE020
000020200000
ENDCHAR
STARTCHAR  00F3
ENCODING  243
SWIDTH  1000 0
DWIDTH  6 0
BBX  6 9 0 -1
BITMAP
000000103000
00A0E0FFE000
0060A0A03000
20E0FFFFE020
C0C04040C0C0
FF30000030FF
E0A01010A0C0
20E0FFFFE020
000020200000
ENDCHAR
STARTCHAR  00F9
ENCODING  249
SWIDTH  1000 0
DWIDTH  6 0
BBX  6 9 -1 -1
BITMAP
000080401000
0020E0FFF000
40A0100040A0
80FF300080FF
80FF300080FF
80FF300080FF
30FFC080F0FF
0060F0FFF0FF
000010200000
ENDCHAR
STARTCHAR  00FA
ENCODING  250
SWIDTH  1000 0
DWIDTH  6 0
BBX  6 9 -1 -1
BITMAP
000010608000
0020FFFFE000
40A010004080
80FF300080F0
80FF300080F0
80FF3000A0F0
30FFC080FFF0
0060F0FFF0F0
000010200000
ENDCHAR
STARTCHAR  00FC
ENCODING  252
SWIDTH  1000 0
DWIDTH  6 0
BBX  6 9 -1 -1
BITMAP
006010208000
00E02060F010
306010006030
60FF3000F080
60FF3000F080
60FF3000FF80
30FFA0C0FF80
0080FFF0FF80
000010100000
ENDCHAR
STARTCHAR  02C7
ENCODING  711
SWIDTH  1000 0
DWIDTH  8 0
BBX  0 0 0 0
BITMAP
ENDCHAR
ENDFONT
