STARTFONT 2.1
FONT HAN-GB2312
SIZE 20 72 72
FONTBOUNDINGBOX 12 20 0 0
STARTPROPERTIES 1
BITCOUNT 8
ENDPROPERTIES
CHARS 10
STARTCHAR  00E0
ENCODING  224
SWIDTH  1000 0
DWIDTH  12 0
BBX  12 17 0 -1
BITMAP
000000200000000000000000
000010FFE0A0602000000000
000040FFFFFFFFFFE0400000
000040C0FFFFFFFFFF200000
000000001020202040404040
00001080E0F0F0C0A0FFFFE0
0020E0FFFFFFFFFFFFFFFFE0
10E0FFFFFFF0FFFFFFFFFFE0
60FFFFE040001080FFFFFFE0
C0FFFF4000000000A0FFFFE0
E0FFFF000000000060FFFFE0
C0FFFF300000000080FFFFE0
80FFFFE030000060FFFFFFE0
10F0FFFFFFE0E0FFFFFFFFE0
0040F0FFFFFFFFFFFFFFFFE0
000020A0F0FFFFF0C0FFFFE0
000000000020200010303020
ENDCHAR
STARTCHAR  00E1
ENCODING  225
SWIDTH  1000 0
DWIDTH  12 0
BBX  12 17 0 -1
BITMAP
000000000000000020000000
000000002060A0F0E0000000
000040E0FFFFFFFFFF300000
000030FFFFFFFFF0C0400000
000000302020200010404040
00001080E0F0F0C0A0FFFFE0
0020E0FFFFFFFFFFFFFFFFE0
10E0FFFFFFF0FFFFFFFFFFE0
60FFFFE040001080FFFFFFE0
C0FFFF4000000000A0FFFFE0
E0FFFF000000000060FFFFE0
C0FFFF300000000080FFFFE0
80FFFFE030000060FFFFFFE0
10F0FFFFFFE0E0FFFFFFFFE0
0040F0FFFFFFFFFFFFFFFFE0
000020A0F0FFFFF0C0FFFFE0
000000000020200010303020
ENDCHAR
STARTCHAR  00E8
ENCODING  232
SWIDTH  1000 0
DWIDTH  12 0
BBX  12 17 0 -1
BITMAP
000000000000000000000000
000040F0A060200000000000
0000A0FFFFFFFFE060000000
000080F0FFFFFFFF60000000
000000004060604010000000
000040E0FFFFFFE040000000
0060FFFFFFFFFFFFFF600000
10F0FFFFE0A0E0FFFFFF3000
60FFFF60000000C0FFFFA000
A0FFC01040A0E0FFFFFFE000
C0FFF0F0FFFFFFFFE0A06000
A0FFFFFFFFC0803060300000
60FFFFE0100000A0FFFFE010
10E0FFFFE0C0F0FFFFFF8000
0040F0FFFFFFFFFFFFC00000
000030E0FFFFFFFF80000000
000000003060401000000000
ENDCHAR
STARTCHAR  00E9
ENCODING  233
SWIDTH  1000 0
DWIDTH  12 0
BBX  12 17 0 -1
BITMAP
000000000000001000000000
000000003080C0F010000000
000080F0FFFFFFFF40000000
0000A0FFFFFFFFE060000000
000020406060400000000000
000040E0FFFFFFE040000000
0060FFFFFFFFFFFFFF600000
10F0FFFFE0A0E0FFFFFF3000
60FFFF60000000C0FFFFA000
A0FFC01040A0E0FFFFFFE000
C0FFF0F0FFFFFFFFE0A06000
A0FFFFFFFFC0803060300000
60FFFFE0100010A0FFFFE010
10E0FFFFE0C0F0FFFFFF8000
0040F0FFFFFFFFFFFFC00000
000030E0FFFFFFFF80000000
000000003060401000000000
ENDCHAR
STARTCHAR  00F2
ENCODING  242
SWIDTH  1000 0
DWIDTH  12 0
BBX  12 17 0 -1
BITMAP
000000401000000000000000
000010FFFFE0A06010000000
000040FFFFFFFFFFFF400000
000030A0E0F0F0FFFF100000
000000002060602000000000
000030E0FFFFFFFFE0300000
0040FFFFFFFFFFFFFFFF4000
20F0FFFFF0A0A0F0FFFFF010
80FFFFC010000010C0FFFF80
C0FFFF300000000030FFFFC0
E0FFFF000000000000FFFFE0
C0FFFF400000000040FFFFC0
60FFFFE030000030E0FFFF60
10E0FFFFFFE0E0FFFFFFE010
0030F0FFFFFFFFFFFFE03000
000020A0F0FFFFF0A0100000
000000000020200000000000
ENDCHAR
STARTCHAR  00F3
ENCODING  243
SWIDTH  1000 0
DWIDTH  12 0
BBX  12 17 0 -1
BITMAP
000000000000002040000000
0000001060A0E0FFF0000000
000060FFFFFFFFFFFF300000
000030FFFFF0F0E080200000
000000002060602000000000
000030E0FFFFFFFFE0300000
0040FFFFFFFFFFFFFFFF4000
20F0FFFFF0A0A0F0FFFFF010
80FFFFC010000010C0FFFF80
C0FFFF300000000030FFFFC0
E0FFFF000000000000FFFFE0
C0FFFF400000000040FFFFC0
60FFFFE030000030E0FFFF60
10E0FFFFFFE0E0FFFFFFE010
0030F0FFFFFFFFFFFFE03000
000020A0F0FFFFF0A0100000
000000000020200000000000
ENDCHAR
STARTCHAR  00F9
ENCODING  249
SWIDTH  1000 0
DWIDTH  12 0
BBX  12 17 0 -1
BITMAP
000000003000000000000000
00000060FFE0A06010000000
000000E0FFFFFFFFFF800000
000010A0E0FFFFFFFF600000
202020200000000010202010
A0FFFFE00000000060FFFF80
A0FFFFE00000000060FFFF80
A0FFFFE00000000060FFFF80
A0FFFFE00000000060FFFF80
A0FFFFE00000000060FFFF80
A0FFFFE00000000060FFFF80
80FFFFFF10000000A0FFFF80
40FFFFFFA0101080FFFFFF80
00E0FFFFFFFFFFFFFFFFFF80
0020E0FFFFFFFFFFFFFFFF80
000010A0F0FFFFE0C0FFFF80
000000000020200000000000
ENDCHAR
STARTCHAR  00FA
ENCODING  250
SWIDTH  1000 0
DWIDTH  12 0
BBX  11 17 0 -1
BITMAP
0000000000000010200000
000000003080C0FFA00000
000010F0FFFFFFFFE00000
000000A0FFFFFFE0A00000
2020202000000000202020
A0FFFFE000000000F0FFE0
A0FFFFE000000000F0FFE0
A0FFFFE000000000F0FFE0
A0FFFFE000000000F0FFE0
A0FFFFE000000000F0FFE0
A0FFFFE000000000F0FFE0
80FFFFFF10000030FFFFE0
40FFFFFFA01020E0FFFFE0
00E0FFFFFFFFFFFFFFFFE0
0030F0FFFFFFFFFFFFFFE0
000020A0FFFFFFA0F0FFE0
0000000010201000000000
ENDCHAR
STARTCHAR  00FC
ENCODING  252
SWIDTH  1000 0
DWIDTH  12 0
BBX  12 17 0 -1
BITMAP
000010100000000010100000
0080FFFF60000020E0FF6000
00F0FFFFE0000060FFFFA000
0060F0F060000010E0F04000
000000000000000000000000
A0E0E0A00000000040E0E060
E0FFFFE00000000060FFFF80
E0FFFFE00000000060FFFF80
E0FFFFE00000000060FFFF80
E0FFFFE00000000060FFFF80
E0FFFFE00000000060FFFF80
C0FFFFF010000000A0FFFF80
80FFFFFFA0000060FFFFFF80
10F0FFFFFFF0F0FFFFFFFF80
0040F0FFFFFFFFFFFFFFFF80
000020A0F0FFFFE0C0FFFF80
000000000020200000000000
ENDCHAR
STARTCHAR  02C7
ENCODING  711
SWIDTH  1000 0
DWIDTH  17 0
BBX  0 0 0 0
BITMAP
ENDCHAR
ENDFONT
