STARTFONT 2.1
FONT HAN-GB2312
SIZE 16 72 72
FONTBOUNDINGBOX 10 16 0 0
STARTPROPERTIES 1
BITCOUNT 8
ENDPROPERTIES
CHARS 10
STARTCHAR  00E0
ENCODING  224
SWIDTH  1000 0
DWIDTH  10 0
BBX  10 13 0 0
BITMAP
00004020000000000000
0010FFFFE0A060100000
0030F0FFFFFFF0100000
00000030404060404000
0010A0F0FFF0E0FFFF10
10E0FFFFFFFFFFFFFF10
80FFFFA080E0FFFFFF10
E0FF80000000E0FFFF10
FFFF2000000080FFFF10
F0FF30000000A0FFFF10
A0FFE0200060FFFFFF10
10E0FFFFFFFFFFFFFF10
0010A0F0FFFFFFFFFF10
ENDCHAR
STARTCHAR  00E1
ENCODING  225
SWIDTH  1000 0
DWIDTH  10 0
BBX  10 13 0 0
BITMAP
00000000003040000000
001060A0F0FFE0000000
0020FFFFFFFFE0100000
00004040402020404000
0010A0F0FFF0E0FFFF10
10E0FFFFFFFFFFFFFF10
80FFFFA080E0FFFFFF10
E0FF80000000E0FFFF10
FFFF2000000080FFFF10
F0FF30000000A0FFFF10
A0FFE0200060FFFFFF10
10E0FFFFFFFFFFFFFF10
0010A0F0FFFFFFFFFF10
ENDCHAR
STARTCHAR  00E8
ENCODING  232
SWIDTH  1000 0
DWIDTH  9 0
BBX  10 13 0 0
BITMAP
00002000000000000000
0000E0F0A06020000000
0020FFFFFFFFF0000000
00002060808060000000
0010A0F0FFF0A0100000
00E0FFFFFFFFFFE01000
60FFF0602060FFFF8000
C0FF602060C0FFFFE000
E0FFF0FFFFFFE0A06000
A0FFFFA0602080A06000
30FFFFA080C0FFFFA000
0060F0FFFFFFFFC01000
00001060A08040000000
ENDCHAR
STARTCHAR  00E9
ENCODING  233
SWIDTH  1000 0
DWIDTH  9 0
BBX  10 13 0 0
BITMAP
00000000001020000000
00003080C0F0A0000000
0020FFFFFFFFF0000000
00006080806010000000
0010A0F0FFF0A0100000
00E0FFFFFFFFFFE01000
60FFF0602060FFFF8000
C0FF602060C0FFFFE000
E0FFF0FFFFFFE0A06000
A0FFFFA0602080A06000
30FFFFA080C0FFFFA000
0060F0FFFFFFFFC01000
00001060A08040000000
ENDCHAR
STARTCHAR  00F2
ENCODING  242
SWIDTH  1000 0
DWIDTH  10 0
BBX  10 12 0 0
BITMAP
0000E0A0603000000000
0020FFFFFFFFF0300000
001060A0A0C0C0100000
000040A0C0A040000000
0080FFFFFFFFFFA00000
60FFFFE0A0E0FFFF6000
E0FFA000000080FFE000
FFFF2000000010FFFF10
F0FF3000000020FFFF00
A0FFE0200020C0FFA000
10E0FFFFF0FFFFE02000
001080E0FFE0A0100000
ENDCHAR
STARTCHAR  00F3
ENCODING  243
SWIDTH  1000 0
DWIDTH  10 0
BBX  10 12 0 0
BITMAP
0000003080C0E0000000
0030F0FFFFFFFF200000
0010C0C0A0A060100000
000040A0C0A040000000
0080FFFFFFFFFFA00000
60FFFFE0A0E0FFFF6000
E0FFA000000080FFE000
FFFF2000000010FFFF10
F0FF3000000020FFFF00
A0FFE0200020C0FFA000
10E0FFFFF0FFFFE02000
001080E0FFE0A0100000
ENDCHAR
STARTCHAR  00F9
ENCODING  249
SWIDTH  1000 0
DWIDTH  10 0
BBX  10 13 0 0
BITMAP
00000080401000000000
000060FFFFF0C0600000
000080E0FFFFFF800000
30404000000010404010
C0FFFF00000030FFFF30
C0FFFF00000030FFFF30
C0FFFF00000030FFFF30
C0FFFF00000030FFFF30
A0FFFF10000030FFFF30
80FFFF600000A0FFFF30
30FFFFF0A0E0FFFFFF30
00A0FFFFFFFFFFFFFF30
000060E0FFE0A0FFFF30
ENDCHAR
STARTCHAR  00FA
ENCODING  250
SWIDTH  1000 0
DWIDTH  10 0
BBX  9 13 0 0
BITMAP
000000001060600000
000060C0FFFFE00000
000060FFFFFFC00000
304040000000304020
C0FFFF000000C0FF80
C0FFFF000000C0FF80
C0FFFF000000C0FF80
C0FFFF000000C0FF80
A0FFFF000000C0FF80
80FFFF400020FFFF80
40FFFFF0A0F0FFFF80
00A0FFFFFFFFFFFF80
000080E0FFC0E0FF80
ENDCHAR
STARTCHAR  00FC
ENCODING  252
SWIDTH  1000 0
DWIDTH  10 0
BBX  9 13 0 0
BITMAP
003060000020801000
00F0FF0000C0FFA000
00A0E0000080F06000
000000000000000000
C0FFFF000000F0FF60
C0FFFF000000F0FF60
C0FFFF000000F0FF60
C0FFFF000000F0FF60
C0FFFF000000FFFF60
A0FFFF300060FFFF60
60FFFFE0A0FFFFFF60
00C0FFFFFFFFFFFF60
0010A0F0F0A0FFFF60
ENDCHAR
STARTCHAR  02C7
ENCODING  711
SWIDTH  1000 0
DWIDTH  13 0
BBX  0 0 0 0
BITMAP
ENDCHAR
ENDFONT
