STARTFONT 2.1
FONT HAN-GB2312
SIZE 14 72 72
FONTBOUNDINGBOX 2 14 0 0
STARTPROPERTIES 1
BITCOUNT 8
ENDPROPERTIES
CHARS 4
STARTCHAR  2018
ENCODING  8216
SWIDTH  1000 0
DWIDTH  2 0
BBX  2 4 0 8
BITMAP
30FF
30FF
30FF
30FF
ENDCHAR
STARTCHAR  2019
ENCODING  8217
SWIDTH  1000 0
DWIDTH  2 0
BBX  2 4 0 8
BITMAP
30FF
30FF
30FF
30FF
ENDCHAR
STARTCHAR  201C
ENCODING  8220
SWIDTH  1000 0
DWIDTH  5 0
BBX  5 4 0 8
BITMAP
30FF0030FF
30FF0030FF
30FF0030FF
30FF0030FF
ENDCHAR
STARTCHAR  201D
ENCODING  8221
SWIDTH  1000 0
DWIDTH  5 0
BBX  5 4 0 8
BITMAP
30FF0030FF
30FF0030FF
30FF0030FF
30FF0030FF
ENDCHAR
ENDFONT
