STARTFONT 2.1
FONT HAN-GB2312
SIZE 20 72 72
FONTBOUNDINGBOX 3 20 0 0
STARTPROPERTIES 1
BITCOUNT 8
ENDPROPERTIES
CHARS 4
STARTCHAR  2018
ENCODING  8216
SWIDTH  1000 0
DWIDTH  3 0
BBX  2 6 1 11
BITMAP
FFE0
FFE0
FFE0
FFE0
FFE0
FFE0
ENDCHAR
STARTCHAR  2019
ENCODING  8217
SWIDTH  1000 0
DWIDTH  3 0
BBX  2 6 1 11
BITMAP
FFE0
FFE0
FFE0
FFE0
FFE0
FFE0
ENDCHAR
STARTCHAR  201C
ENCODING  8220
SWIDTH  1000 0
DWIDTH  7 0
BBX  5 6 1 11
BITMAP
FFE000E0FF
FFE000E0FF
FFE000E0FF
FFE000E0FF
FFE000E0FF
FFE000E0FF
ENDCHAR
STARTCHAR  201D
ENCODING  8221
SWIDTH  1000 0
DWIDTH  7 0
BBX  5 6 1 11
BITMAP
FFE000E0FF
FFE000E0FF
FFE000E0FF
FFE000E0FF
FFE000E0FF
FFE000E0FF
ENDCHAR
ENDFONT
